<?xml version="1.0" standalone="no"?>
<!DOCTYPE svg PUBLIC "-//W3C//DTD SVG 20010904//EN"
 "http://www.w3.org/TR/2001/REC-SVG-20010904/DTD/svg10.dtd">
<svg version="1.0" xmlns="http://www.w3.org/2000/svg"
 width="740.000000pt" height="740.000000pt" viewBox="0 0 740.000000 740.000000"
 preserveAspectRatio="xMidYMid meet">
<metadata>
Created by potrace 1.11, written by Peter Selinger 2001-2013
</metadata>
<g transform="translate(0.000000,740.000000) scale(0.100000,-0.100000)"
fill="#000000" stroke="none">
<path d="M0 3700 l0 -3700 3700 0 3700 0 0 3700 0 3700 -3700 0 -3700 0 0
-3700z m5164 2629 c48 -13 123 -82 147 -134 23 -51 25 -165 3 -248 -48 -185
-286 -532 -579 -843 -11 -12 -45 -48 -75 -80 -29 -32 -117 -123 -193 -201
l-139 -141 93 -104 c52 -57 154 -176 227 -264 74 -87 142 -169 152 -181 41
-48 288 -380 306 -410 10 -18 22 -33 26 -33 4 0 8 -4 8 -9 0 -5 16 -33 35 -63
84 -127 192 -372 183 -414 -3 -14 -164 141 -638 613 -597 595 -635 631 -652
616 -10 -9 -18 -21 -18 -27 0 -6 293 -303 650 -659 698 -695 667 -659 607
-696 -22 -15 28 -63 -817 783 -278 278 -510 506 -516 506 -6 0 -18 -8 -27 -18
-16 -17 17 -52 618 -652 349 -349 635 -639 635 -643 0 -35 -191 51 -385 173
-112 71 -390 268 -428 303 -6 7 -41 35 -77 62 -144 110 -422 347 -590 501
l-25 23 -35 -32 c-325 -303 -809 -682 -1080 -847 -181 -109 -308 -160 -407
-160 -70 0 -97 12 -127 57 -58 84 -28 186 132 453 43 70 58 93 145 218 45 62
213 288 237 315 10 12 52 63 92 113 97 121 150 183 295 345 l122 137 -20 23
c-11 13 -91 96 -177 184 -157 160 -255 264 -302 320 -36 44 -144 169 -150 175
-18 17 -164 215 -196 265 -52 82 -128 239 -144 299 -14 51 -20 179 -9 190 7 8
408 -387 433 -426 13 -20 16 -38 11 -68 l-7 -40 59 0 58 0 334 -335 c184 -184
337 -335 341 -335 4 0 15 9 25 20 18 20 12 26 -303 340 -177 176 -322 322
-322 324 0 3 13 18 28 35 l28 31 321 -322 c320 -320 322 -322 343 -303 11 10
19 22 18 27 -2 4 -156 160 -342 347 l-339 339 5 46 5 45 -46 -5 -46 -6 -225
226 c-123 124 -221 229 -217 233 5 4 39 9 76 11 252 15 627 -234 1209 -803 96
-93 178 -170 182 -170 5 0 55 45 112 100 230 221 305 292 458 426 204 180 445
346 602 415 95 41 213 55 292 33z m-2787 -261 l212 -211 -31 -29 c-16 -15 -32
-28 -35 -28 -10 0 -413 409 -413 419 0 10 41 61 50 61 3 0 100 -95 217 -212z
m225 -3266 c64 -23 103 -62 124 -124 14 -45 16 -75 10 -218 -4 -98 -3 -177 3
-192 6 -16 22 -28 50 -37 35 -10 41 -16 41 -40 0 -60 -79 -118 -175 -128 -50
-5 -54 -4 -94 32 l-41 38 -66 -33 c-145 -74 -310 -43 -373 71 -19 32 -24 57
-24 108 0 162 116 244 338 240 l100 -2 3 48 c6 88 -16 125 -73 125 -23 0 -47
-11 -77 -35 -111 -90 -165 -111 -213 -85 -48 26 -40 117 15 163 39 33 108 66
161 76 77 15 239 11 291 -7z m758 7 c100 -21 190 -112 190 -192 0 -42 -27 -92
-56 -106 -36 -16 -96 -14 -122 5 -12 8 -38 46 -57 84 -38 75 -56 90 -109 90
-81 0 -121 -95 -98 -232 15 -88 51 -151 111 -193 54 -38 110 -38 198 -1 75 31
94 32 118 6 39 -43 -19 -119 -135 -174 -60 -29 -73 -31 -175 -31 -105 0 -113
2 -175 33 -79 41 -106 65 -147 134 -63 103 -67 261 -11 376 43 90 154 177 255
201 54 13 154 13 213 0z m1697 -2 c60 -16 104 -49 129 -97 17 -31 19 -59 19
-235 0 -110 4 -208 9 -217 4 -10 16 -18 25 -18 31 0 61 -30 61 -60 0 -52 -111
-120 -197 -120 -24 0 -44 10 -73 36 l-40 37 -63 -34 c-58 -32 -68 -34 -157
-34 -106 0 -131 9 -191 69 -62 63 -73 176 -25 262 46 83 152 124 318 124 l98
0 0 58 c0 73 -17 106 -54 110 -43 5 -69 -4 -107 -39 -88 -80 -148 -103 -203
-77 -32 14 -44 65 -26 108 23 54 112 112 201 129 69 14 219 12 276 -2z m-1172
-8 c4 -6 6 -105 6 -221 -2 -286 15 -338 115 -338 58 0 99 35 119 103 16 53 21
253 7 272 -4 6 -25 19 -47 30 -43 22 -48 44 -17 78 52 58 299 114 316 71 3 -9
6 -130 6 -269 0 -276 -3 -263 60 -293 41 -20 50 -52 22 -80 -36 -36 -180 -85
-252 -86 l-65 -1 -9 45 c-5 25 -11 47 -13 49 -2 3 -18 -10 -36 -27 -92 -89
-283 -96 -371 -14 -57 54 -69 99 -73 287 -2 94 -6 179 -8 190 -3 12 -23 30
-50 43 -34 16 -45 27 -45 44 0 34 11 45 70 72 104 48 249 72 265 45z m448
-1000 c23 -29 21 -68 -5 -96 l-22 -23 22 -22 21 -22 10 27 c14 36 61 39 61 4
0 -12 -8 -33 -17 -47 -16 -22 -16 -24 5 -38 34 -22 28 -42 -12 -42 -19 0 -36
4 -38 10 -2 6 -20 4 -46 -5 -100 -35 -181 43 -121 118 16 21 18 31 10 46 -25
46 -7 96 39 114 26 10 74 -2 93 -24z m-2154 -5 c23 -29 26 -55 11 -85 -8 -14
-6 -25 6 -43 19 -30 12 -74 -17 -105 -17 -18 -31 -21 -112 -21 l-92 0 3 140 3
140 89 0 c84 0 90 -1 109 -26z m270 -109 c28 -74 51 -137 51 -140 0 -3 -13 -5
-28 -5 -21 0 -32 7 -40 25 -11 23 -17 25 -72 25 -55 0 -61 -2 -72 -25 -8 -18
-19 -25 -41 -25 -23 0 -28 3 -23 18 4 9 28 72 54 139 l47 123 36 0 37 0 51
-135z m286 23 c0 -92 -3 -111 -21 -134 -53 -72 -204 -42 -204 41 0 35 41 35
64 0 11 -17 26 -25 45 -25 43 0 56 23 56 104 l0 71 -70 5 c-64 5 -70 7 -73 28
-3 23 -3 23 100 20 l103 -3 0 -107z m205 99 c0 -7 20 -63 45 -125 25 -61 45
-119 45 -127 0 -26 -49 -18 -62 10 -10 23 -17 25 -74 25 -58 0 -62 -2 -68 -25
-5 -20 -13 -25 -36 -25 -17 0 -30 4 -30 9 0 5 23 68 51 140 l51 131 39 0 c25
0 39 -5 39 -13z m527 -13 c20 -20 24 -31 19 -57 -8 -37 -8 -47 0 -108 5 -42 3
-48 -22 -68 -24 -19 -38 -21 -113 -19 l-86 3 -2 129 c-1 71 0 133 3 138 3 4
43 8 90 8 78 0 87 -2 111 -26z m263 -96 c26 -65 49 -120 52 -124 13 -12 -5
-34 -26 -34 -15 0 -27 9 -34 25 -11 23 -17 25 -76 25 -60 0 -64 -2 -70 -25 -5
-20 -13 -25 -36 -25 -17 0 -30 3 -30 6 0 7 61 171 84 225 8 20 12 40 8 43 -4
4 13 6 38 4 l44 -3 46 -117z m269 107 c48 -24 56 -86 17 -132 l-24 -28 24 -43
c31 -55 30 -62 -4 -62 -24 0 -33 8 -56 50 -21 39 -33 50 -52 50 -22 0 -24 -4
-24 -50 0 -49 -1 -50 -30 -50 l-30 0 0 140 0 140 75 0 c47 0 87 -6 104 -15z
m654 -50 c21 -36 39 -65 41 -65 3 0 21 29 41 65 32 57 40 65 65 65 l30 0 0
-124 c0 -68 -3 -131 -6 -140 -3 -9 -17 -16 -30 -16 -23 0 -24 2 -24 77 l0 77
-30 -47 c-16 -26 -34 -47 -40 -47 -12 0 -48 35 -67 66 -11 16 -13 7 -10 -54
l2 -72 -32 0 -33 0 0 140 0 140 28 0 c24 0 33 -9 65 -65z m409 -7 c15 -40 38
-103 52 -140 l25 -68 -30 0 c-22 0 -32 6 -39 25 -9 23 -14 25 -74 25 -60 0
-64 -2 -70 -25 -5 -20 -13 -25 -36 -25 -35 0 -36 6 -10 68 10 26 33 84 50 130
l31 82 37 0 c37 0 37 0 64 -72z m298 54 c13 -10 23 -33 27 -58 4 -33 1 -45
-20 -70 l-26 -30 25 -43 c31 -55 30 -61 -6 -61 -26 0 -33 7 -55 50 -20 40 -30
50 -50 50 -23 0 -25 -3 -25 -50 0 -49 -1 -50 -30 -50 l-30 0 0 140 0 140 84 0
c65 0 89 -4 106 -18z m-2240 -216 c0 -7 -5 -27 -11 -45 -8 -24 -17 -31 -36
-31 -23 0 -25 3 -19 31 3 17 6 38 6 45 0 9 11 14 30 14 19 0 30 -5 30 -14z"/>
<path d="M4502 6002 c-45 -41 -53 -71 -25 -93 9 -8 23 -26 32 -40 23 -38 56
-23 71 32 7 23 18 53 27 65 14 22 13 25 -13 49 -15 14 -32 25 -39 25 -6 0 -30
-17 -53 -38z"/>
<path d="M4622 5933 c-33 -50 -44 -87 -32 -117 9 -25 13 -27 62 -24 l53 3 -2
39 c-2 22 2 45 9 53 9 11 5 20 -17 43 -36 37 -48 37 -73 3z"/>
<path d="M4368 5819 c-21 -22 -38 -44 -38 -48 0 -14 49 -61 63 -61 20 0 107
89 107 109 0 27 -21 41 -59 41 -29 0 -43 -8 -73 -41z"/>
<path d="M4520 5801 c0 -24 13 -33 34 -25 12 5 13 10 5 25 -13 25 -39 24 -39
0z"/>
<path d="M4573 5755 c-21 -23 -15 -60 13 -88 35 -36 60 -42 89 -23 42 28 46
96 6 96 -10 0 -32 7 -47 15 -35 18 -45 18 -61 0z"/>
<path d="M4455 5719 c-22 -19 -35 -40 -35 -55 0 -20 5 -24 33 -24 17 0 41 -7
51 -15 10 -8 23 -12 27 -9 12 7 11 91 -1 115 -15 27 -34 24 -75 -12z"/>
<path d="M4451 5519 c-44 -17 -63 -50 -56 -93 8 -53 12 -58 45 -51 24 5 29 2
35 -17 10 -30 23 -38 67 -38 39 0 41 2 52 71 8 46 -19 75 -60 65 -21 -6 -25
-4 -21 8 4 9 -3 26 -16 40 -18 20 -26 23 -46 15z"/>
<path d="M4308 5358 c-30 -17 -38 -28 -38 -50 0 -29 23 -48 60 -48 17 0 19 -4
14 -24 -5 -22 -1 -27 31 -40 47 -20 71 -20 78 -2 7 18 0 62 -14 88 -8 16 -13
17 -25 7 -19 -16 -30 -4 -14 16 7 9 23 15 34 14 35 -2 39 0 26 16 -8 9 -21 13
-32 9 -14 -4 -24 1 -34 15 -19 26 -39 26 -86 -1z"/>
<path d="M4475 5285 c-3 -8 -7 -21 -9 -29 -8 -24 23 -56 53 -56 30 0 61 27 61
52 0 39 -94 69 -105 33z"/>
<path d="M4155 5074 c-20 -22 -23 -30 -13 -48 19 -38 41 -56 65 -56 20 0 23
-4 18 -22 -3 -13 -11 -33 -18 -46 -9 -19 -8 -29 4 -50 19 -34 50 -39 74 -12
19 21 19 22 0 57 -15 27 -17 37 -7 41 25 8 43 35 40 61 -2 19 -13 31 -40 44
-21 10 -38 25 -38 32 0 13 -21 25 -46 25 -8 0 -26 -12 -39 -26z"/>
<path d="M4062 4955 l-37 -35 28 -25 29 -26 19 22 c13 15 23 19 29 13 7 -7 4
-17 -10 -29 -11 -10 -20 -22 -20 -26 0 -17 33 -39 61 -39 26 0 29 3 29 32 0
17 -8 40 -17 50 -16 18 -15 19 5 34 12 8 20 20 16 26 -4 6 -10 6 -17 -1 -7 -7
-16 -2 -29 15 -26 32 -41 30 -86 -11z"/>
<path d="M3699 4781 l-22 -18 21 -36 c13 -19 29 -38 37 -41 17 -6 21 -61 5
-71 -5 -3 -10 -1 -10 4 0 6 -9 11 -20 11 -27 0 -25 16 3 25 l22 8 -22 4 c-13
2 -23 8 -23 13 0 19 -39 31 -61 20 -29 -16 -23 -74 8 -78 15 -2 23 -11 25 -30
2 -23 9 -28 37 -30 20 -2 37 2 42 10 7 10 11 10 21 0 20 -20 48 -14 60 13 10
21 8 28 -12 45 -23 20 -23 20 -2 20 18 0 22 6 22 34 0 33 -21 66 -41 66 -5 0
-15 11 -21 25 -13 30 -37 32 -69 6z"/>
<path d="M3188 4369 c-10 -5 -18 -20 -18 -33 0 -17 -8 -25 -32 -32 -25 -7 -34
-16 -36 -35 -2 -21 6 -33 45 -62 30 -22 52 -32 58 -26 5 5 24 9 42 9 26 0 33
4 33 19 0 10 -7 21 -15 25 -19 7 -20 26 -1 26 8 0 16 6 19 13 8 22 -4 67 -19
67 -8 0 -19 9 -26 20 -14 22 -25 24 -50 9z"/>
<path d="M2563 4014 c-3 -8 -1 -20 6 -27 18 -18 13 -29 -11 -27 -40 4 -48 0
-48 -19 0 -28 70 -84 87 -70 7 6 19 9 27 6 23 -9 41 19 26 38 -10 12 -10 22
-2 39 9 21 7 27 -21 50 -35 30 -55 33 -64 10z"/>
<path d="M2375 2401 c-62 -26 -82 -116 -36 -165 20 -21 34 -26 71 -26 68 0 84
21 89 121 l3 79 -53 -1 c-30 0 -63 -4 -74 -8z"/>
<path d="M4833 2394 c-60 -30 -65 -146 -8 -172 38 -18 90 -14 116 7 21 17 24
30 27 100 l4 81 -53 0 c-30 0 -69 -8 -86 -16z"/>
<path d="M4250 1751 c0 -25 20 -38 31 -20 15 23 10 39 -11 39 -13 0 -20 -7
-20 -19z"/>
<path d="M4234 1625 c-9 -22 4 -35 37 -35 33 0 37 10 11 33 -23 21 -41 22 -48
2z"/>
<path d="M2040 1739 c0 -30 1 -30 47 -27 37 2 49 7 51 22 5 24 -14 36 -60 36
-36 0 -38 -2 -38 -31z"/>
<path d="M2040 1626 l0 -37 46 3 c31 2 51 9 58 20 15 25 -3 39 -58 45 l-46 6
0 -37z"/>
<path d="M2338 1695 l-17 -45 39 0 39 0 -17 45 c-9 25 -19 45 -22 45 -3 0 -13
-20 -22 -45z"/>
<path d="M2877 1701 c-10 -23 -17 -44 -17 -46 0 -3 16 -5 36 -5 29 0 35 3 30
16 -3 9 -6 21 -6 28 0 7 -6 20 -13 30 -13 17 -15 15 -30 -23z"/>
<path d="M3320 1741 c0 -30 2 -31 43 -31 55 0 76 13 61 37 -7 12 -26 19 -58
21 -45 3 -46 3 -46 -27z"/>
<path d="M3327 1653 c-4 -3 -7 -19 -7 -35 0 -27 2 -28 48 -28 26 0 53 5 59 11
12 12 6 39 -11 51 -14 10 -80 10 -89 1z"/>
<path d="M3632 1713 c-5 -16 -13 -36 -17 -45 -6 -15 -1 -18 29 -18 20 0 36 5
36 10 0 14 -28 80 -34 80 -2 0 -9 -12 -14 -27z"/>
<path d="M3880 1735 c0 -35 0 -35 45 -35 40 0 45 3 51 26 8 32 -7 44 -58 44
-37 0 -38 -1 -38 -35z"/>
<path d="M4982 1713 c-5 -16 -13 -36 -17 -45 -6 -15 -1 -18 33 -18 l41 0 -15
28 c-7 15 -14 35 -14 45 0 26 -17 20 -28 -10z"/>
<path d="M5230 1734 l0 -35 47 3 c38 2 49 7 51 22 5 26 -24 46 -65 46 -31 0
-33 -2 -33 -36z"/>
</g>
</svg>
