<svg xmlns="http://www.w3.org/2000/svg" width="2666.667" height="2666.667" preserveAspectRatio="xMidYMid meet" version="1.0" viewBox="0 0 2000 2000"><metadata>Created by potrace 1.11, written by Peter Selinger 2001-2013</metadata><g fill="#000" stroke="none"><path d="M10567 15757 c4 -6 0 -8 -10 -4 -10 3 -17 2 -17 -3 0 -6 -9 -6 -24 0 -13 5 -27 6 -30 3 -3 -4 -45 -8 -92 -9 -47 -1 -88 -5 -91 -8 -4 -3 -13 0 -21 7 -13 10 -15 9 -10 -4 4 -11 0 -15 -13 -14 -10 1 -21 4 -24 7 -11 10 -55 -4 -48 -16 5 -7 2 -7 -8 1 -9 7 -20 8 -29 3 -7 -4 -23 -5 -35 0 -12 4 -29 4 -38 -2 -9 -5 -22 -6 -27 -3 -6 3 -10 2 -10 -3 0 -5 -12 -7 -26 -4 -21 4 -25 2 -19 -9 7 -11 6 -12 -7 -2 -8 7 -18 10 -21 7 -3 -4 -29 -8 -57 -9 -28 -2 -54 -5 -57 -9 -3 -3 -12 -1 -20 6 -10 8 -12 8 -8 -4 4 -10 -2 -14 -19 -13 -13 0 -28 3 -32 7 -4 4 -13 3 -20 -3 -8 -6 -21 -9 -29 -5 -9 3 -13 2 -10 -4 3 -6 0 -11 -7 -11 -7 -1 -22 -3 -33 -4 -56 -8 -92 -8 -105 0 -12 7 -13 6 -3 -6 9 -12 4 -14 -30 -17 -57 -3 -68 -6 -94 -20 -20 -11 -22 -10 -17 5 5 16 4 16 -8 3 -7 -9 -26 -15 -41 -13 -17 1 -30 -4 -34 -13 -4 -12 -7 -12 -18 3 -13 17 -14 17 -20 1 -4 -10 -11 -16 -15 -13 -5 3 -11 1 -15 -5 -4 -6 -13 -7 -23 -1 -13 7 -25 4 -42 -9 -17 -13 -30 -16 -47 -9 -18 7 -25 4 -33 -12 -6 -11 -15 -17 -21 -14 -12 8 -100 -5 -95 -14 2 -3 -9 -7 -25 -7 -15 -1 -36 -5 -46 -9 -10 -5 -21 -9 -25 -9 -3 -1 -9 -4 -13 -8 -4 -4 -14 -4 -22 -1 -8 3 -18 1 -22 -6 -4 -6 -23 -12 -42 -14 -19 -2 -33 -8 -32 -13 1 -5 -11 -9 -25 -8 -15 1 -36 -4 -47 -9 -11 -6 -31 -13 -45 -15 -13 -2 -27 -7 -30 -11 -3 -5 -13 -7 -22 -6 -9 2 -19 -3 -22 -11 -3 -7 -12 -11 -21 -8 -8 3 -15 1 -15 -4 0 -6 -9 -9 -20 -7 -12 2 -23 -2 -26 -10 -3 -7 -16 -12 -29 -10 -13 1 -26 -3 -29 -10 -2 -7 -17 -12 -32 -12 -16 0 -30 -6 -32 -12 -2 -6 -14 -11 -26 -11 -12 0 -26 -4 -32 -9 -5 -5 -18 -11 -29 -13 -11 -1 -23 -7 -26 -11 -3 -4 -18 -9 -33 -11 -16 -2 -31 -7 -34 -13 -4 -5 -17 -9 -29 -8 -12 1 -21 -3 -20 -9 1 -6 -6 -10 -15 -8 -9 1 -19 -2 -23 -7 -3 -6 -12 -8 -20 -4 -8 3 -15 0 -15 -7 0 -6 -4 -8 -10 -5 -5 3 -10 1 -10 -5 0 -7 -6 -10 -14 -7 -8 3 -20 -1 -26 -8 -7 -8 -16 -12 -21 -9 -5 3 -9 0 -9 -6 0 -6 -5 -8 -10 -5 -6 4 -17 1 -25 -5 -8 -7 -15 -9 -15 -4 0 5 -5 2 -10 -6 -8 -13 -10 -13 -10 -1 0 11 -4 10 -16 -5 -8 -10 -13 -12 -9 -4 6 13 5 13 -7 0 -7 -8 -19 -15 -25 -16 -30 -2 -34 -5 -27 -16 5 -8 2 -9 -9 -5 -21 8 -49 -2 -41 -14 3 -5 -2 -9 -10 -9 -24 0 -30 -2 -44 -17 -8 -7 -18 -11 -23 -8 -5 4 -9 1 -9 -5 0 -6 -4 -8 -10 -5 -5 3 -10 2 -10 -4 0 -5 -10 -11 -22 -13 -13 -2 -22 -9 -21 -15 2 -8 -4 -10 -14 -6 -9 4 -21 -1 -29 -12 -10 -13 -14 -14 -14 -5 0 10 -4 9 -13 -4 -7 -9 -22 -18 -35 -19 -12 0 -22 -5 -22 -9 0 -4 -6 -8 -14 -8 -7 0 -19 -7 -26 -15 -7 -8 -18 -15 -24 -15 -6 0 -4 5 4 10 8 5 10 10 4 10 -14 0 -36 -25 -29 -32 3 -3 -6 -4 -20 -3 -14 2 -23 0 -21 -4 3 -4 -11 -13 -30 -20 -18 -7 -34 -17 -34 -23 0 -5 -7 -8 -15 -4 -8 3 -15 1 -15 -5 0 -6 -4 -8 -9 -4 -6 3 -14 -3 -20 -12 -6 -10 -11 -12 -11 -5 0 7 -8 4 -20 -8 -12 -12 -26 -18 -32 -14 -6 4 -9 3 -5 -2 3 -5 -6 -14 -19 -21 -13 -6 -22 -7 -18 -2 3 5 -2 6 -10 3 -9 -3 -13 -10 -10 -15 3 -5 -2 -9 -10 -9 -9 0 -16 -5 -16 -11 0 -5 -4 -8 -9 -5 -10 7 -61 -16 -61 -27 0 -5 -4 -5 -10 -2 -5 3 -10 1 -10 -5 0 -6 -4 -9 -9 -6 -5 3 -12 -1 -15 -9 -3 -8 -9 -14 -13 -13 -4 1 -18 -3 -29 -10 -12 -6 -25 -8 -29 -4 -5 4 -5 2 -2 -4 8 -14 -20 -27 -35 -17 -7 3 -8 1 -4 -5 4 -7 2 -12 -4 -12 -6 0 -9 -4 -5 -9 3 -6 -4 -8 -15 -6 -12 2 -20 -1 -20 -10 0 -8 -8 -12 -19 -10 -11 2 -22 -3 -25 -11 -3 -8 -12 -14 -21 -14 -8 0 -15 -3 -15 -8 0 -4 -14 -13 -30 -20 -17 -8 -28 -17 -25 -22 3 -4 -5 -10 -16 -13 -13 -4 -18 -10 -13 -18 4 -7 3 -10 -4 -5 -6 3 -13 2 -17 -4 -4 -6 -10 -8 -15 -5 -4 3 -11 -2 -14 -11 -3 -8 -10 -12 -16 -9 -5 3 -10 1 -10 -6 0 -7 -3 -10 -6 -6 -3 3 -15 -3 -27 -13 -11 -11 -23 -17 -27 -15 -5 3 -10 -2 -14 -10 -3 -8 -15 -15 -26 -15 -12 0 -19 -4 -16 -8 3 -5 -8 -16 -25 -26 -16 -9 -29 -14 -29 -9 0 4 -5 0 -11 -9 -5 -10 -15 -18 -20 -18 -6 0 -17 -6 -24 -12 -35 -32 -45 -38 -59 -38 -9 0 -20 -9 -26 -20 -6 -11 -15 -18 -21 -15 -5 4 -9 2 -9 -4 0 -6 -11 -13 -25 -17 -14 -3 -25 -13 -25 -21 0 -8 -4 -11 -10 -8 -5 3 -10 1 -10 -4 0 -6 -6 -11 -13 -11 -7 0 -22 -7 -33 -16 -10 -8 -12 -12 -4 -8 9 4 12 3 7 -2 -5 -5 -12 -9 -15 -9 -22 -2 -51 -18 -56 -30 -3 -8 -12 -15 -21 -15 -8 0 -15 -4 -15 -10 0 -5 -6 -10 -13 -10 -7 0 -22 -8 -33 -18 -10 -10 -27 -21 -36 -25 -10 -3 -18 -11 -18 -17 0 -5 -6 -10 -13 -10 -7 0 -20 -8 -28 -17 -20 -22 -62 -57 -69 -57 -6 0 -24 -15 -50 -40 -11 -11 -20 -16 -20 -11 0 4 -11 -4 -25 -19 -14 -15 -25 -24 -25 -21 0 3 -10 -3 -22 -15 -12 -11 -26 -20 -30 -20 -5 0 -19 -11 -32 -25 -13 -14 -29 -25 -35 -25 -7 0 -9 -4 -6 -10 3 -5 -1 -10 -9 -10 -8 0 -23 -8 -33 -18 -10 -10 -34 -29 -53 -42 -19 -14 -40 -29 -47 -35 -36 -30 -41 -33 -46 -29 -3 3 -10 -4 -17 -15 -6 -12 -17 -21 -25 -21 -8 0 -15 -4 -15 -8 0 -4 -21 -24 -47 -44 -27 -21 -60 -49 -76 -63 -15 -14 -32 -23 -37 -20 -6 4 -9 2 -8 -3 3 -11 -40 -52 -54 -52 -5 0 -6 -4 -3 -10 3 -5 -1 -10 -10 -10 -8 0 -30 -16 -47 -35 -17 -20 -33 -33 -36 -31 -2 3 -16 -8 -30 -24 -15 -17 -30 -30 -35 -30 -4 0 -21 -14 -37 -30 -17 -17 -30 -27 -30 -23 0 4 -5 0 -11 -9 -5 -10 -17 -18 -25 -18 -8 0 -12 -4 -9 -10 3 -5 0 -10 -7 -10 -7 0 -22 -11 -32 -25 -10 -13 -22 -22 -27 -19 -5 3 -9 -2 -9 -10 0 -14 -12 -20 -32 -17 -5 0 -8 -6 -8 -14 0 -8 -7 -15 -15 -15 -8 0 -15 -8 -15 -17 0 -9 -3 -14 -6 -11 -3 4 -23 -11 -45 -33 -21 -21 -44 -39 -50 -39 -5 0 -7 -4 -4 -10 3 -5 -1 -10 -10 -10 -10 0 -13 -5 -9 -12 5 -8 2 -9 -10 -5 -9 4 -15 3 -13 -1 2 -4 -7 -17 -20 -29 -13 -12 -23 -19 -23 -15 -1 4 -7 -4 -15 -18 -8 -14 -14 -21 -15 -17 0 5 -20 -12 -45 -37 -24 -25 -49 -46 -55 -46 -6 0 -8 -4 -5 -10 6 -9 -8 -14 -28 -11 -5 1 -7 -2 -4 -6 2 -5 -11 -22 -30 -40 -18 -17 -33 -29 -33 -27 0 3 -6 -1 -14 -8 -8 -7 -12 -16 -10 -19 2 -4 -7 -10 -21 -13 -14 -4 -24 -10 -24 -14 3 -18 -2 -33 -9 -28 -5 3 -14 -4 -22 -14 -8 -10 -17 -17 -21 -14 -4 2 -10 -5 -14 -16 -3 -11 -11 -20 -17 -20 -6 0 -35 -25 -63 -55 -29 -30 -55 -52 -59 -48 -3 3 -6 -1 -6 -11 0 -9 -7 -19 -15 -22 -8 -3 -17 -14 -20 -25 -4 -11 -11 -17 -16 -14 -5 4 -9 1 -9 -5 0 -13 -100 -117 -100 -104 -1 5 -8 -4 -16 -19 -8 -15 -19 -25 -24 -22 -6 4 -10 1 -10 -5 0 -6 -7 -18 -15 -26 -8 -9 -15 -13 -15 -10 0 3 -9 -3 -20 -14 -11 -11 -20 -24 -20 -29 0 -5 -9 -13 -20 -16 -11 -3 -25 -15 -31 -26 -5 -11 -14 -17 -20 -14 -5 4 -9 3 -8 -2 3 -20 -2 -34 -11 -28 -5 3 -10 -1 -10 -9 0 -9 -5 -16 -10 -16 -15 0 -100 -87 -93 -94 4 -3 -2 -6 -12 -6 -10 0 -16 -3 -12 -6 8 -8 -18 -34 -33 -34 -6 0 -9 -4 -6 -8 3 -5 -8 -21 -25 -36 -16 -15 -29 -32 -29 -37 0 -6 -5 -7 -10 -4 -6 3 -10 2 -10 -4 0 -6 -17 -28 -38 -49 -21 -21 -36 -45 -34 -53 3 -8 1 -11 -3 -7 -8 7 -65 -47 -65 -62 0 -6 -7 -10 -15 -10 -8 0 -14 -6 -13 -12 2 -7 -3 -12 -10 -10 -8 1 -11 -2 -8 -7 4 -5 0 -13 -8 -18 -8 -4 -15 -12 -16 -18 -1 -5 -6 -9 -11 -7 -5 1 -9 -3 -9 -8 0 -6 -11 -21 -25 -34 -14 -13 -25 -26 -25 -29 0 -3 -18 -25 -40 -48 -22 -23 -40 -46 -40 -51 0 -5 -4 -6 -10 -3 -5 3 -10 -3 -10 -15 0 -12 -3 -19 -7 -17 -8 5 -29 -13 -29 -23 0 -6 -49 -62 -93 -106 -19 -19 -31 -34 -27 -34 3 0 -2 -8 -12 -18 -9 -10 -28 -33 -42 -52 -14 -18 -30 -38 -35 -44 -6 -6 -22 -27 -35 -46 -13 -19 -32 -42 -42 -51 -10 -9 -18 -21 -18 -27 0 -6 -8 -16 -17 -21 -10 -6 -15 -11 -11 -11 7 0 -17 -32 -49 -66 -7 -7 -13 -17 -13 -23 0 -5 -8 -16 -19 -23 -10 -7 -19 -17 -21 -23 -1 -5 -6 -9 -12 -7 -5 1 -7 -2 -4 -6 3 -5 -5 -21 -18 -35 -13 -14 -21 -28 -18 -31 3 -3 0 -6 -7 -6 -7 0 -9 -4 -6 -10 3 -5 -1 -10 -9 -10 -9 0 -16 -5 -16 -10 0 -11 -11 -26 -45 -62 -11 -12 -13 -17 -5 -13 8 4 6 -1 -5 -12 -29 -30 -60 -67 -60 -74 0 -3 -7 -12 -15 -21 -8 -9 -21 -25 -29 -36 -8 -12 -19 -18 -24 -15 -6 4 -7 1 -2 -7 5 -8 1 -18 -11 -27 -10 -8 -18 -16 -16 -18 6 -12 1 -25 -10 -23 -7 2 -12 -3 -13 -10 0 -7 -5 -16 -10 -20 -6 -4 -16 -19 -24 -34 -8 -15 -18 -25 -23 -22 -7 5 -10 -3 -7 -22 0 -3 -10 -14 -22 -25 -12 -10 -19 -19 -15 -19 4 0 -2 -10 -13 -22 -11 -11 -18 -24 -16 -28 3 -5 -2 -11 -11 -14 -9 -4 -14 -13 -10 -22 3 -8 2 -13 -3 -10 -5 3 -12 -1 -15 -10 -3 -8 -11 -12 -16 -9 -6 4 -9 3 -8 -2 4 -14 -13 -53 -23 -53 -6 0 -7 -5 -4 -10 3 -6 -1 -13 -9 -16 -9 -3 -13 -10 -11 -15 3 -4 -3 -17 -14 -28 -11 -11 -17 -22 -14 -25 4 -3 1 -6 -5 -6 -7 0 -12 -6 -12 -13 0 -7 -15 -30 -32 -52 -18 -22 -24 -33 -13 -25 11 8 7 0 -9 -17 -15 -17 -25 -36 -22 -41 3 -6 -1 -12 -9 -16 -8 -3 -15 -12 -15 -21 0 -8 -4 -15 -10 -15 -5 0 -10 -7 -10 -15 0 -9 -7 -18 -15 -21 -8 -4 -13 -10 -10 -14 3 -5 -2 -16 -11 -24 -8 -9 -12 -16 -7 -16 4 0 -1 -7 -12 -16 -11 -8 -20 -18 -19 -22 2 -16 -9 -42 -18 -42 -6 0 -7 -7 -4 -15 3 -9 -1 -18 -9 -21 -8 -4 -15 -14 -15 -23 0 -10 -9 -27 -20 -39 -12 -12 -16 -22 -10 -22 7 0 4 -7 -4 -16 -9 -8 -16 -22 -16 -30 0 -8 -8 -14 -17 -14 -11 0 -14 -3 -7 -8 7 -5 3 -20 -11 -45 -12 -20 -24 -35 -27 -32 -3 3 -4 -5 -3 -19 2 -14 -3 -27 -12 -30 -8 -3 -11 -10 -8 -16 3 -5 2 -10 -4 -10 -5 0 -12 -14 -16 -30 -4 -19 -11 -28 -18 -23 -7 3 -9 3 -5 -2 4 -4 2 -17 -4 -29 -7 -11 -11 -24 -10 -28 1 -5 -3 -8 -9 -8 -5 0 -7 -4 -4 -10 3 -5 1 -10 -4 -10 -6 0 -11 -9 -11 -20 0 -10 -8 -24 -18 -29 -9 -6 -13 -11 -8 -11 5 0 3 -7 -4 -15 -6 -8 -9 -18 -6 -24 3 -5 -1 -12 -10 -15 -8 -3 -12 -10 -9 -16 3 -5 1 -10 -4 -10 -6 0 -11 -3 -10 -7 3 -19 -14 -52 -23 -46 -6 3 -9 0 -6 -8 3 -8 -1 -20 -9 -27 -7 -8 -11 -18 -8 -23 4 -5 1 -9 -5 -9 -6 0 -8 -5 -5 -10 3 -6 0 -13 -9 -16 -8 -3 -12 -12 -9 -20 3 -8 0 -14 -7 -14 -6 0 -8 -4 -5 -10 3 -5 2 -10 -2 -10 -5 0 -14 -9 -21 -21 -8 -12 -9 -18 -3 -15 7 4 8 1 5 -8 -3 -9 -11 -16 -16 -16 -6 0 -7 -7 -4 -16 3 -8 2 -12 -4 -9 -5 3 -10 -4 -10 -17 0 -46 -4 -58 -19 -58 -11 0 -12 -3 -4 -11 9 -9 6 -23 -10 -58 -12 -25 -26 -49 -31 -52 -5 -4 -5 -12 -2 -18 4 -6 2 -11 -3 -11 -6 0 -11 -9 -11 -21 0 -11 -4 -18 -8 -15 -4 3 -8 -7 -8 -22 1 -19 -4 -26 -14 -24 -10 1 -9 -2 4 -13 18 -14 18 -15 2 -15 -9 0 -15 -4 -11 -9 3 -5 0 -13 -6 -17 -8 -4 -7 -9 2 -15 11 -7 11 -9 1 -9 -7 0 -10 -4 -7 -10 3 -5 2 -10 -4 -10 -5 0 -8 -8 -7 -17 2 -10 -4 -31 -13 -48 -9 -16 -16 -42 -16 -57 1 -15 -3 -26 -8 -25 -5 1 -11 -6 -12 -15 -2 -10 2 -18 8 -18 6 0 1 -7 -11 -16 -16 -11 -21 -21 -16 -40 4 -14 2 -24 -5 -24 -6 0 -8 -7 -5 -15 4 -9 0 -15 -7 -15 -12 0 -12 -2 -1 -9 11 -6 10 -10 -3 -15 -13 -5 -14 -10 -7 -19 8 -9 7 -21 -4 -42 -8 -15 -12 -30 -9 -33 3 -3 5 1 5 8 0 7 3 11 6 8 3 -4 -1 -17 -8 -30 -8 -12 -14 -33 -13 -45 1 -13 -1 -23 -6 -23 -5 0 -5 -7 -2 -17 4 -10 2 -14 -4 -10 -6 4 -9 -11 -9 -37 1 -25 -3 -42 -8 -38 -5 3 -7 -2 -3 -10 3 -9 0 -21 -6 -28 -9 -10 -9 -11 3 -5 13 8 13 7 1 -8 -7 -9 -10 -17 -5 -17 5 0 2 -5 -6 -10 -13 -9 -13 -11 0 -20 11 -7 11 -10 2 -10 -7 0 -11 -4 -8 -8 2 -4 1 -14 -4 -22 -5 -9 -5 -19 2 -27 7 -9 7 -13 -2 -13 -7 0 -10 -7 -6 -16 3 -8 2 -13 -2 -10 -4 2 -7 -33 -7 -79 0 -69 -2 -82 -15 -77 -13 5 -13 3 -1 -11 9 -12 10 -17 2 -17 -9 0 -9 -5 -1 -20 6 -12 7 -20 1 -20 -10 0 -9 -19 2 -37 4 -6 4 -14 -1 -16 -10 -7 -9 -328 1 -344 5 -8 4 -13 -2 -13 -8 0 -7 -6 1 -19 9 -15 9 -23 -3 -37 -8 -10 -9 -15 -3 -11 7 4 15 -1 18 -10 4 -9 2 -20 -5 -23 -8 -5 -8 -9 0 -14 6 -4 9 -20 7 -36 -2 -16 -1 -32 3 -35 6 -6 7 -11 9 -53 2 -16 6 -21 14 -16 9 5 9 2 -1 -9 -11 -14 -11 -20 -1 -32 10 -12 10 -15 -1 -15 -9 0 -10 -3 -4 -8 10 -7 17 -27 18 -49 0 -7 5 -13 10 -13 5 0 4 -6 -2 -14 -9 -11 -9 -16 -1 -21 7 -4 10 -16 7 -26 -3 -10 0 -20 6 -22 6 -2 11 -18 12 -37 1 -19 7 -36 13 -38 7 -2 12 -17 12 -33 0 -16 5 -29 10 -29 6 0 10 -12 10 -27 0 -14 8 -35 17 -46 13 -15 14 -18 3 -12 -12 7 -13 6 -3 -7 7 -8 10 -18 6 -21 -3 -4 2 -7 11 -7 10 0 16 -6 13 -12 -2 -7 3 -22 12 -32 13 -16 13 -18 1 -11 -11 6 -10 3 3 -12 9 -11 14 -23 10 -26 -3 -4 -1 -7 6 -7 7 0 9 -4 6 -10 -3 -5 -1 -10 5 -10 6 0 8 -4 5 -10 -3 -6 -1 -10 5 -10 6 0 8 -4 5 -10 -3 -5 -1 -10 6 -10 6 0 9 -8 6 -19 -3 -12 1 -22 10 -25 8 -3 12 -10 8 -16 -3 -5 2 -18 12 -28 10 -10 19 -25 21 -33 2 -8 11 -23 20 -33 13 -15 14 -18 2 -12 -8 4 -6 0 4 -8 11 -9 16 -16 11 -16 -5 0 0 -7 11 -16 10 -8 12 -12 4 -8 -11 6 -10 2 2 -13 10 -11 18 -25 18 -32 0 -7 4 -10 9 -7 5 3 14 -8 21 -24 7 -17 16 -30 21 -30 5 0 9 -5 9 -11 0 -7 9 -20 21 -30 11 -9 20 -20 20 -23 -1 -6 16 -27 62 -76 15 -17 25 -30 22 -30 -3 0 32 -38 79 -85 47 -47 90 -85 96 -85 6 0 8 -4 5 -10 -6 -10 9 -15 30 -10 5 1 7 -1 3 -5 -8 -9 16 -35 31 -35 6 0 11 -7 11 -16 0 -8 5 -12 10 -9 6 3 10 1 10 -4 0 -6 5 -11 12 -11 6 0 18 -7 27 -15 9 -8 28 -26 44 -40 15 -14 27 -22 27 -18 0 4 7 -1 15 -11 11 -15 15 -16 16 -5 0 8 4 4 9 -8 6 -14 18 -23 30 -23 12 0 19 -4 16 -8 -3 -5 6 -15 19 -22 13 -7 22 -17 19 -22 -3 -5 -2 -8 3 -7 16 5 62 -24 56 -35 -3 -6 -3 -8 2 -4 4 4 26 -6 48 -22 22 -16 44 -27 49 -24 5 3 7 2 6 -3 -2 -4 0 -8 3 -8 4 0 15 -8 25 -17 11 -9 26 -18 34 -20 8 -2 21 -11 28 -21 7 -9 18 -15 23 -12 5 4 9 1 9 -6 0 -7 3 -10 6 -6 4 3 13 -1 21 -9 8 -8 19 -12 24 -8 5 3 12 -2 15 -11 4 -9 13 -14 20 -11 8 3 14 1 14 -5 0 -6 4 -8 9 -5 5 3 12 -1 15 -9 3 -8 9 -14 13 -13 4 1 18 -3 30 -10 13 -7 23 -10 23 -6 0 4 9 -3 19 -15 12 -13 21 -17 23 -10 3 8 9 7 20 -4 8 -9 18 -13 22 -10 3 4 6 1 6 -6 0 -8 8 -11 20 -8 11 3 18 1 15 -3 -3 -5 -1 -11 5 -15 5 -3 10 -1 10 5 0 7 7 5 16 -4 8 -9 19 -14 24 -11 4 3 11 -3 14 -12 6 -15 8 -15 16 -3 8 12 10 12 16 -3 4 -10 17 -17 34 -17 15 0 33 -7 40 -15 7 -8 17 -12 22 -9 5 3 19 -2 30 -13 12 -10 18 -12 14 -6 -5 9 -2 11 8 7 9 -3 16 -10 16 -16 0 -5 9 -6 20 -3 12 4 20 2 20 -5 0 -6 5 -8 10 -5 6 3 10 1 10 -4 0 -6 12 -11 26 -11 14 0 23 -4 19 -9 -3 -6 4 -8 15 -6 11 2 20 -2 20 -8 0 -8 3 -8 9 1 7 11 9 11 14 -2 4 -9 13 -13 20 -10 8 3 22 -2 31 -11 9 -9 16 -12 16 -6 0 6 5 11 11 11 5 0 7 -5 3 -12 -5 -8 -2 -9 9 -5 10 4 17 2 17 -5 0 -7 5 -7 14 2 12 9 18 8 31 -8 10 -11 27 -18 41 -16 13 1 22 -1 19 -6 -3 -4 2 -11 11 -14 10 -4 13 -2 8 7 -6 9 -5 9 8 0 8 -7 18 -10 21 -6 4 3 7 1 7 -7 0 -10 3 -10 15 0 12 10 15 10 15 -3 0 -10 7 -15 20 -12 11 2 20 0 20 -4 0 -4 7 -8 15 -8 8 0 15 4 15 9 0 5 7 2 16 -6 16 -17 27 -20 58 -16 10 1 15 -3 12 -8 -4 -6 2 -8 14 -5 11 3 20 1 20 -4 0 -6 10 -10 22 -10 41 -1 49 -3 44 -11 -3 -5 11 -8 30 -7 18 1 34 -2 34 -6 0 -5 7 -5 17 -2 12 5 14 3 8 -8 -7 -11 -5 -11 10 1 10 8 16 10 12 3 -5 -8 2 -11 22 -11 17 1 36 -4 44 -10 10 -9 17 -8 27 1 10 9 11 9 6 0 -5 -9 1 -13 16 -13 65 -1 68 -2 61 -13 -4 -7 2 -5 12 3 11 9 16 10 11 3 -5 -9 1 -13 19 -13 15 0 36 -5 47 -11 15 -8 19 -8 14 0 -4 6 -2 11 3 11 6 0 11 -4 11 -10 0 -5 7 -6 17 -3 9 4 14 2 10 -3 -3 -5 7 -9 21 -8 15 1 32 -3 39 -8 7 -6 14 -5 18 2 5 8 11 8 20 0 8 -7 20 -8 26 -4 8 4 9 3 5 -5 -5 -8 0 -10 18 -7 14 3 26 1 26 -3 0 -4 16 -6 35 -5 20 2 34 0 31 -5 -3 -4 8 -6 23 -3 16 2 32 -1 36 -8 5 -8 10 -8 21 1 11 9 14 9 14 -1 0 -8 2 -11 6 -8 3 3 21 2 40 -2 23 -5 34 -4 34 4 0 8 3 8 8 0 10 -14 45 -27 36 -13 -4 8 -1 8 12 2 11 -6 37 -9 59 -9 24 1 45 -5 53 -14 8 -8 11 -9 7 -2 -4 7 0 12 10 12 10 0 13 -5 9 -12 -5 -8 0 -7 11 2 14 11 17 12 11 1 -6 -9 -5 -12 5 -9 8 3 24 2 35 -3 12 -4 25 -5 28 -1 11 11 36 11 36 0 0 -6 7 -4 17 3 14 12 16 12 8 0 -6 -11 -3 -13 13 -9 12 4 22 2 22 -3 0 -5 5 -9 11 -9 5 0 7 6 3 13 -6 9 -4 9 7 1 20 -16 78 -23 83 -10 3 8 5 8 5 0 1 -6 16 -9 36 -8 19 2 37 -1 41 -7 4 -7 10 -6 19 1 9 8 15 8 20 0 3 -6 9 -9 13 -6 4 2 31 0 60 -3 34 -5 52 -4 52 3 0 8 3 8 8 1 4 -6 23 -10 42 -10 19 0 38 -4 43 -10 4 -6 11 -5 17 5 9 13 11 13 20 0 9 -13 10 -13 11 0 0 10 3 8 9 -5 5 -11 9 -14 9 -7 1 7 5 11 10 7 5 -3 12 -1 16 5 4 6 18 5 41 -5 22 -9 32 -10 28 -3 -5 8 -1 9 12 4 10 -5 44 -9 74 -10 30 -1 60 -5 66 -9 6 -3 14 -4 18 0 8 9 70 8 84 -1 7 -4 12 -2 12 6 0 10 2 10 8 0 5 -7 19 -11 33 -8 13 2 30 -1 37 -6 8 -8 12 -6 12 6 0 10 5 14 10 11 6 -4 8 -10 5 -15 -3 -5 8 -5 24 0 16 4 31 7 33 5 2 -2 20 -6 42 -9 21 -4 43 -9 50 -13 6 -4 4 2 -4 12 -15 19 -14 19 11 3 15 -9 30 -14 33 -11 9 10 36 13 36 4 0 -8 42 -7 57 2 7 4 14 3 17 -2 5 -8 27 -8 46 -1 3 1 10 1 15 0 24 -6 62 -5 83 2 12 4 22 4 22 0 0 -4 22 -7 50 -7 27 0 50 4 50 8 0 5 5 5 11 2 17 -11 99 -11 99 0 0 7 3 7 8 0 4 -5 21 -10 37 -10 17 0 33 5 37 10 5 7 8 7 8 0 0 -11 61 -12 78 -1 7 4 12 2 12 -5 0 -9 3 -9 14 0 10 8 16 9 21 1 4 -7 13 -7 28 1 16 9 22 9 25 0 3 -9 7 -9 19 0 11 10 16 10 23 0 5 -9 10 -10 14 -3 4 6 14 8 23 5 10 -4 14 -2 10 4 -5 7 0 9 13 6 11 -3 17 -9 14 -14 -3 -5 2 -6 10 -3 9 3 16 11 16 16 0 6 6 5 15 -2 11 -9 15 -9 15 -1 0 9 5 9 21 0 16 -8 23 -8 29 1 6 9 9 9 13 -1 4 -11 6 -11 6 -1 1 7 6 10 11 7 6 -3 10 -1 10 6 0 7 7 4 15 -7 10 -13 17 -15 22 -8 5 6 18 10 31 9 12 -1 22 3 22 9 0 6 5 3 11 -7 8 -14 14 -16 25 -6 8 6 22 9 33 6 10 -2 26 0 35 5 11 6 16 5 16 -3 0 -8 4 -8 15 1 8 7 15 9 15 4 0 -5 11 -9 25 -9 14 0 25 3 25 6 0 10 45 5 53 -6 4 -6 10 -5 16 4 6 9 11 10 15 2 5 -8 13 -8 28 0 16 8 19 8 13 -1 -6 -9 -2 -9 14 -1 16 9 21 9 21 0 0 -9 3 -9 14 0 8 7 17 8 19 4 7 -10 48 -10 65 1 7 4 12 2 12 -4 0 -8 6 -8 20 0 11 6 20 7 20 3 0 -5 15 -7 33 -6 17 2 58 5 91 8 32 2 61 6 64 9 3 3 11 1 18 -5 8 -7 14 -7 19 1 4 7 13 7 27 -1 12 -6 18 -7 14 -1 -3 5 1 13 10 16 12 5 15 2 10 -10 -5 -14 -4 -15 8 -5 17 15 106 22 106 9 0 -5 4 -7 10 -3 5 3 30 7 55 10 32 2 44 0 39 -8 -3 -7 2 -3 10 7 10 13 16 15 16 7 0 -10 3 -11 14 -2 11 9 15 9 19 -1 4 -11 6 -11 6 0 1 9 6 10 19 3 14 -7 25 -6 40 5 15 10 23 11 28 3 5 -8 3 -9 -6 -4 -9 5 -11 4 -6 -4 6 -9 11 -9 23 1 17 14 46 20 38 8 -5 -9 13 -8 30 1 6 3 40 5 77 5 38 -1 68 3 68 8 0 5 6 3 14 -3 10 -9 16 -9 21 -1 5 8 11 7 23 -2 13 -11 14 -11 7 1 -6 11 -4 13 7 8 9 -3 21 0 28 6 10 9 11 9 6 0 -9 -16 6 -17 22 -1 9 9 12 9 12 -2 0 -11 3 -11 12 -2 16 16 31 15 22 0 -6 -10 -4 -10 7 -2 8 7 50 12 94 13 92 2 112 4 121 14 4 4 14 1 22 -6 12 -9 16 -9 19 1 3 6 9 12 14 12 6 0 7 -6 3 -12 -6 -10 -4 -10 7 -2 21 16 59 24 59 12 0 -6 5 -7 13 -2 6 5 38 9 69 9 31 -1 55 3 52 7 -7 12 19 5 29 -7 6 -6 10 -6 14 3 6 16 35 16 52 0 11 -10 13 -10 7 0 -8 14 -9 14 64 15 30 1 58 6 62 11 5 7 8 6 8 -3 0 -11 3 -11 15 -1 12 10 15 10 15 -1 0 -12 2 -12 9 0 6 9 10 10 16 2 4 -8 11 -9 18 -3 19 15 56 21 63 11 3 -6 12 -5 21 2 16 14 53 20 53 9 0 -4 7 -7 15 -7 8 0 12 4 9 9 -6 10 26 6 45 -6 10 -7 12 -6 6 4 -6 10 -3 12 13 8 12 -4 20 -3 17 2 -8 13 25 21 46 10 10 -6 19 -7 19 -3 0 4 20 8 44 9 29 0 43 -3 39 -10 -4 -6 1 -5 10 3 9 7 24 10 33 7 13 -5 14 -3 6 6 -8 10 8 13 79 13 49 0 89 3 89 8 0 4 5 7 11 7 5 0 7 -6 4 -12 -4 -7 -1 -6 7 2 12 14 35 17 146 21 17 0 32 6 32 13 0 6 5 4 10 -4 9 -13 10 -13 10 0 0 12 2 12 9 1 5 -8 11 -9 15 -3 3 6 16 8 28 4 11 -3 19 -1 16 4 -4 5 20 9 53 8 36 0 59 4 59 10 0 7 3 7 8 1 10 -14 35 -18 26 -4 -4 8 0 9 15 4 11 -3 21 -3 21 2 0 4 26 8 58 7 66 -1 85 4 75 20 -4 6 1 5 10 -3 12 -9 17 -10 17 -2 0 7 5 9 10 6 6 -4 17 -2 25 5 8 7 15 7 19 1 7 -10 25 -9 44 2 7 5 12 3 12 -5 0 -10 2 -10 9 1 5 7 14 10 20 7 6 -4 11 -3 11 2 0 5 10 8 23 7 12 -1 32 2 45 6 12 5 22 5 22 0 0 -4 7 -8 15 -8 8 0 11 5 8 10 -4 6 5 8 21 5 14 -3 26 -1 26 3 0 5 6 6 14 3 8 -3 17 -1 20 5 4 6 18 6 36 1 18 -5 28 -5 25 1 -3 5 8 7 25 5 25 -3 30 -1 25 13 -5 13 -4 13 6 4 10 -10 16 -10 28 0 12 10 13 9 7 -1 -7 -11 -4 -12 12 -3 10 6 30 8 42 6 12 -2 29 2 37 10 8 9 20 12 26 8 18 -11 47 -11 40 0 -4 6 0 8 10 4 10 -4 17 -1 17 6 0 7 3 8 8 2 10 -15 32 -17 32 -3 0 6 3 8 7 5 3 -4 13 -1 21 6 11 8 14 8 9 0 -4 -6 -3 -15 3 -18 6 -4 9 -1 8 7 -2 7 4 13 12 13 8 0 21 4 28 8 6 5 12 4 12 -1 0 -12 53 -2 62 12 6 8 8 8 8 0 0 -6 7 -11 15 -11 8 0 11 5 8 10 -4 6 3 8 15 5 12 -4 22 -3 22 1 0 4 15 6 32 5 18 -1 41 2 51 8 15 8 18 7 11 -4 -6 -11 -5 -11 9 1 14 11 17 11 17 0 0 -9 5 -7 11 5 9 15 13 16 20 5 6 -10 9 -10 9 -2 0 7 7 10 15 7 8 -4 15 -1 15 6 0 6 5 8 13 3 18 -11 36 -12 43 -2 8 14 26 11 19 -3 -4 -7 -1 -6 7 2 7 8 24 15 38 15 14 0 31 4 38 9 8 5 12 4 12 -4 0 -10 3 -10 15 0 8 6 20 8 26 4 9 -5 10 -2 5 11 -5 15 -4 16 8 6 8 -7 16 -8 19 -4 3 4 32 8 65 8 41 0 57 3 52 10 -6 7 9 10 45 10 34 -1 52 2 48 8 -4 6 1 8 10 4 10 -3 17 -2 17 3 0 5 9 7 20 5 11 -2 20 1 20 7 0 7 6 6 15 -2 12 -10 15 -10 15 1 0 11 2 11 10 -1 9 -14 14 -7 11 13 -1 4 8 3 19 -3 16 -9 22 -8 27 5 5 13 7 14 14 3 6 -8 9 -9 9 -1 0 6 9 9 21 6 12 -4 25 0 30 8 7 11 9 11 9 1 0 -7 5 -10 10 -7 6 4 8 10 6 14 -3 4 13 6 35 4 26 -2 39 1 39 10 0 9 3 8 9 -2 6 -9 11 -10 15 -2 4 6 12 9 17 6 5 -4 9 -2 9 3 0 5 10 8 23 7 12 -1 25 3 29 9 5 7 8 7 8 -2 0 -8 5 -10 13 -5 6 4 21 9 31 10 11 2 25 8 31 13 7 6 16 5 24 -3 8 -8 14 -9 19 -1 4 6 17 10 30 9 12 -1 22 2 22 7 0 4 5 8 11 8 5 0 7 -6 3 -12 -4 -7 3 -4 16 7 14 12 20 14 15 5 -6 -12 -5 -12 5 -3 7 6 19 9 26 6 8 -3 14 0 14 6 0 6 7 8 15 5 8 -4 21 -2 28 4 6 5 29 9 49 8 26 -1 34 2 28 9 -7 8 3 11 34 11 24 -1 42 2 40 6 -4 6 83 24 99 20 4 -1 7 3 7 9 0 8 6 7 17 -2 11 -10 14 -10 9 -1 -7 12 1 14 52 15 12 0 22 4 22 9 0 5 5 6 10 3 6 -3 10 -2 10 4 0 5 9 8 20 6 11 -2 20 2 20 8 0 8 3 8 9 -1 7 -11 11 -11 23 2 9 8 18 13 21 10 3 -3 15 -1 26 6 16 8 21 8 21 -2 0 -10 2 -10 9 1 5 7 14 10 20 7 6 -4 11 -2 11 4 0 6 4 9 9 6 5 -4 12 0 14 6 4 10 6 10 6 0 1 -10 6 -10 21 -2 11 6 20 7 20 3 0 -4 7 2 16 13 8 10 13 13 9 7 -4 -8 0 -13 9 -13 9 0 16 4 16 9 0 5 16 8 36 7 19 -1 40 4 45 10 6 7 21 11 34 9 14 -1 25 2 25 7 0 6 7 7 16 4 8 -3 12 -2 9 4 -4 6 8 10 29 10 19 0 38 5 41 10 9 15 37 12 30 -2 -4 -7 1 -4 9 6 9 11 16 16 16 12 0 -5 8 -2 17 5 11 10 14 10 9 2 -4 -7 -2 -13 3 -13 6 0 11 4 11 8 0 8 7 10 48 13 9 1 23 6 30 12 8 6 12 6 12 -2 0 -7 5 -9 10 -6 6 4 8 10 6 14 -3 4 5 7 17 6 12 -1 30 2 40 7 12 6 17 5 17 -4 0 -8 5 -6 11 5 6 9 14 15 20 12 5 -4 9 -2 9 3 0 5 14 8 30 7 17 -1 30 1 30 5 0 3 6 7 13 8 6 0 21 3 32 6 11 2 26 5 33 5 8 1 10 6 6 14 -6 9 -5 9 7 0 10 -8 19 -9 25 -3 6 6 22 11 37 12 15 1 27 5 27 8 0 3 12 7 27 8 15 1 30 8 35 15 6 9 8 8 8 -3 1 -13 2 -13 13 0 7 9 19 15 27 15 8 -1 22 4 30 11 8 6 23 10 33 9 9 -2 17 2 17 8 0 8 3 7 9 -2 7 -10 12 -8 26 10 10 14 15 17 12 7 -4 -12 -2 -15 9 -11 7 3 14 8 14 12 0 4 12 7 28 6 15 -1 36 5 47 12 11 7 27 13 37 13 10 0 18 4 18 9 0 5 8 8 18 6 9 -1 26 5 36 14 16 13 18 13 11 1 -7 -12 -6 -13 7 -3 8 7 18 10 21 6 4 -3 7 -1 7 6 0 8 7 11 15 7 8 -3 15 -1 15 4 0 5 7 7 15 4 8 -4 15 -1 15 4 0 6 9 9 20 7 11 -2 20 0 20 6 0 5 11 9 24 9 14 0 28 5 31 10 4 6 11 8 16 5 5 -4 9 -1 9 5 0 7 7 10 15 7 8 -4 17 -2 21 4 3 6 12 8 20 5 8 -3 13 0 11 6 -1 6 11 12 28 13 17 0 40 6 52 13 12 7 29 12 38 12 9 0 13 5 10 10 -4 7 3 9 18 6 16 -3 27 1 31 9 3 8 17 12 35 11 17 -1 31 2 31 7 0 4 4 6 9 3 5 -3 14 1 21 8 6 8 20 13 30 11 11 -2 19 1 17 8 -1 7 6 11 15 9 9 -1 19 2 23 8 3 5 15 10 26 10 10 0 19 5 19 11 0 5 5 7 10 4 6 -3 10 -1 10 5 0 6 5 8 10 5 6 -3 10 0 10 7 0 10 2 10 8 0 6 -9 13 -8 28 5 10 10 28 20 39 21 11 2 23 9 27 15 4 6 10 8 14 4 4 -4 14 2 22 14 11 16 17 17 28 8 11 -9 14 -9 14 0 0 7 5 9 10 6 6 -3 10 -1 10 4 0 6 11 11 25 11 14 0 25 5 25 12 0 6 3 9 6 5 4 -3 13 0 20 8 8 8 22 11 31 8 12 -5 14 -3 8 7 -6 10 -4 12 8 7 10 -4 17 -2 17 4 0 6 7 8 16 5 8 -3 12 -2 9 4 -3 6 3 10 14 10 11 0 27 7 35 16 12 12 16 12 16 2 0 -9 3 -9 8 -2 4 6 15 10 24 9 10 -2 15 2 12 10 -4 9 1 12 13 11 9 -2 24 3 31 11 7 7 22 13 33 13 10 0 19 5 19 11 0 6 6 9 13 6 15 -5 49 11 43 21 -2 4 10 8 27 8 16 1 36 9 42 17 7 9 15 14 18 11 3 -3 16 0 29 7 12 7 29 12 36 11 6 -2 12 2 12 8 0 6 5 8 10 5 6 -3 10 -1 10 5 0 7 7 9 15 6 9 -3 18 1 21 8 3 8 13 13 22 12 9 -2 23 3 30 11 8 7 18 11 23 8 5 -4 9 -1 9 5 0 6 4 9 9 5 5 -3 12 -1 16 5 3 5 15 10 25 10 10 0 24 8 29 18 8 13 11 14 11 2 0 -12 2 -12 10 2 6 10 19 15 30 13 11 -2 18 0 15 4 -5 9 50 36 60 30 4 -2 11 4 16 14 6 9 14 15 20 12 5 -4 12 0 15 9 3 8 12 12 20 9 8 -3 14 0 14 7 0 6 5 8 10 5 6 -3 10 -1 10 5 0 6 5 8 10 5 6 -3 10 -1 10 6 0 7 3 9 7 6 3 -4 15 1 26 10 10 10 22 17 26 17 3 -1 5 2 4 6 -1 5 9 7 22 5 13 -1 22 1 20 6 -3 4 4 10 15 14 11 3 20 10 20 15 0 5 6 7 14 4 8 -3 21 5 30 18 9 12 16 19 16 14 0 -5 11 -1 25 8 14 9 31 14 37 10 7 -4 8 -3 4 5 -7 11 32 33 46 24 4 -2 5 4 1 13 -4 11 -3 15 5 10 6 -3 17 0 24 7 7 8 21 12 32 9 12 -3 17 -1 13 5 -6 10 13 23 29 22 4 0 10 4 13 9 3 6 12 12 20 14 8 2 25 13 39 25 13 13 28 20 32 18 4 -3 11 2 14 11 3 8 10 12 16 9 5 -3 10 -1 10 5 0 6 5 8 10 5 6 -3 10 1 10 10 0 9 4 14 10 10 5 -3 19 4 30 15 11 11 25 18 30 15 6 -4 10 1 10 9 0 10 6 13 17 9 12 -5 14 -3 8 7 -6 10 -4 12 8 7 11 -4 18 1 22 14 4 10 11 17 16 14 5 -4 9 -1 9 4 0 6 3 10 8 9 4 -2 18 7 31 19 13 12 28 20 33 17 4 -3 8 2 8 11 0 9 4 14 9 10 5 -3 21 5 34 17 42 38 57 49 57 41 0 -4 5 0 11 9 5 10 16 18 23 18 8 0 16 7 20 15 3 8 13 15 21 15 9 0 13 5 10 10 -3 6 -1 10 6 10 6 0 21 10 33 23 12 12 29 23 37 25 7 2 20 12 28 22 7 11 20 20 28 20 8 0 12 4 9 9 -3 5 2 15 11 22 14 12 16 12 8 -1 -4 -8 11 5 35 30 24 25 46 45 49 45 4 0 5 3 3 8 -2 7 13 11 31 8 4 0 7 6 7 16 0 9 3 14 6 10 4 -3 21 10 39 29 18 18 38 34 44 34 7 0 9 5 6 10 -3 6 1 10 9 10 8 0 17 9 21 19 3 10 15 21 26 24 14 4 18 10 13 18 -5 9 -2 10 12 5 10 -4 15 -4 12 0 -8 7 43 60 54 56 4 -1 7 3 6 10 -2 6 8 17 22 25 14 7 21 13 15 13 -5 0 4 13 20 28 46 43 130 136 130 145 0 4 12 18 27 31 15 12 25 26 22 29 -3 3 4 11 16 17 12 6 19 14 16 17 -2 3 6 15 19 28 14 12 22 25 18 28 -3 4 -1 7 5 7 6 0 14 9 17 20 4 11 11 18 16 15 5 -4 10 -1 10 4 1 6 2 16 3 21 0 6 7 14 14 19 8 5 14 12 15 17 1 5 6 8 10 6 5 -1 6 2 3 7 -4 5 1 14 10 19 9 5 15 11 13 13 -5 9 13 49 22 49 6 0 7 5 4 10 -3 6 1 13 10 16 10 4 13 13 9 26 -4 13 -2 18 4 14 6 -3 13 3 17 14 3 11 11 20 16 20 5 0 9 11 9 24 0 14 5 28 12 32 7 5 8 3 3 -6 -5 -8 -4 -11 3 -6 6 4 8 14 5 22 -4 10 4 24 20 38 15 13 24 26 21 29 -6 6 16 48 30 59 5 3 11 15 12 24 2 10 9 23 17 29 8 5 13 18 11 28 -1 11 0 16 3 13 8 -8 43 50 43 70 0 8 5 12 10 9 6 -3 10 4 10 17 0 13 6 30 13 37 10 11 9 12 -2 6 -10 -6 -10 -2 2 16 8 13 13 32 12 42 -2 9 1 15 6 11 8 -4 14 25 10 49 0 4 3 7 7 7 5 0 9 7 10 15 1 8 3 22 4 30 1 8 5 15 9 15 4 0 6 11 5 25 -2 13 0 24 3 23 19 -2 24 4 11 12 -10 6 -11 10 -2 10 6 0 12 9 12 20 0 11 6 20 13 20 8 0 7 4 -3 10 -12 7 -12 10 -1 10 7 0 11 6 8 14 -3 7 0 19 6 25 6 6 8 11 5 11 -4 0 -1 12 7 26 7 15 11 33 8 40 -3 8 0 14 6 14 6 0 11 9 11 19 0 11 5 23 11 27 8 4 7 9 -2 15 -11 7 -11 9 2 9 11 0 15 8 14 25 -2 14 2 25 8 25 5 0 7 3 4 7 -4 3 -1 13 6 21 9 13 9 14 0 8 -7 -4 -13 -2 -13 3 0 6 5 11 11 11 5 0 7 5 3 11 -3 6 0 15 7 20 12 7 12 9 0 9 -11 0 -11 3 -1 15 7 8 9 15 5 15 -4 0 -1 8 6 17 8 9 9 14 3 10 -7 -4 -14 0 -17 8 -4 10 -1 12 10 8 12 -5 15 -2 10 10 -3 9 -3 18 1 21 4 2 7 25 7 50 -1 25 4 46 10 46 5 0 3 5 -5 10 -9 6 -11 10 -3 10 7 0 10 7 6 17 -5 12 -3 14 8 8 11 -6 12 -5 2 5 -8 9 -9 19 -2 32 7 13 6 18 -3 18 -9 0 -9 3 2 10 13 9 13 10 0 10 -9 0 -11 3 -5 8 12 8 13 151 2 169 -4 6 -3 15 3 18 8 5 7 12 -2 23 -11 13 -11 14 2 7 13 -8 13 -7 1 8 -10 13 -10 17 -1 17 9 0 10 3 1 13 -8 10 -7 17 2 27 9 10 9 11 0 6 -14 -8 -18 9 -5 17 12 8 6 68 -9 78 -9 6 -10 9 -2 9 7 0 10 7 6 17 -5 12 -3 14 8 9 8 -4 5 0 -5 8 -11 9 -15 16 -9 16 6 0 9 9 6 21 -4 12 0 25 8 31 11 8 10 9 -3 4 -12 -3 -18 0 -18 10 0 9 5 12 13 8 9 -5 9 -4 0 6 -6 7 -9 19 -6 26 3 8 1 14 -3 14 -5 0 -10 20 -11 45 -1 31 1 43 9 39 7 -5 8 -3 4 5 -5 7 -15 10 -25 7 -12 -5 -11 -2 3 9 11 8 14 15 7 15 -7 0 -10 4 -6 9 3 5 1 13 -5 16 -8 5 -7 11 1 21 9 11 9 14 -1 14 -8 0 -10 3 -7 7 4 3 1 13 -6 21 -10 13 -9 14 3 7 9 -5 7 0 -4 14 -20 22 -20 22 0 15 16 -7 17 -5 7 8 -7 8 -10 18 -6 21 3 4 0 7 -7 7 -7 0 -11 3 -7 6 3 3 2 17 -3 30 -7 17 -6 24 3 25 6 0 3 4 -8 9 -11 5 -15 9 -8 9 14 1 5 41 -11 41 -6 0 -4 5 4 10 10 6 11 10 3 10 -7 0 -13 5 -13 11 0 5 4 7 10 4 6 -3 7 1 4 9 -3 9 -11 13 -17 9 -6 -4 -8 0 -4 10 3 9 -1 18 -10 21 -12 5 -13 9 -3 21 10 12 10 15 0 15 -7 0 -10 8 -7 20 3 11 1 20 -5 20 -5 0 -6 9 -3 20 5 15 2 20 -12 20 -13 0 -15 2 -5 9 10 6 9 13 -6 32 -15 17 -18 29 -11 47 7 19 5 24 -14 32 -12 5 -17 9 -11 9 13 1 7 48 -7 57 -5 3 -9 14 -9 25 0 11 -4 18 -9 14 -6 -3 -8 4 -6 15 2 11 0 20 -5 20 -5 0 -6 7 -3 17 5 12 3 14 -8 8 -11 -7 -11 -5 1 10 9 11 10 16 3 11 -12 -6 -18 5 -14 27 0 4 -4 7 -10 7 -8 0 -8 5 1 15 8 10 9 15 2 15 -6 0 -17 10 -23 23 -12 21 -11 21 7 7 15 -12 14 -9 -4 14 -12 15 -19 32 -16 37 3 5 -3 9 -13 9 -15 0 -16 2 -3 10 9 6 10 10 3 10 -7 0 -10 9 -8 21 3 16 1 18 -9 10 -10 -9 -13 -6 -11 14 2 14 -1 25 -6 25 -4 0 -6 7 -2 15 3 10 1 15 -7 13 -6 -2 -16 7 -21 20 -6 17 -6 21 4 17 6 -4 1 3 -12 14 -14 13 -18 21 -10 21 12 0 12 2 0 9 -11 7 -11 9 0 14 10 4 8 6 -4 6 -10 1 -15 6 -12 11 3 6 1 10 -4 10 -6 0 -11 5 -11 12 0 6 -8 21 -17 32 -17 20 -17 20 0 7 15 -12 17 -12 11 3 -3 9 -10 16 -15 16 -5 0 -9 7 -9 15 0 8 -4 15 -10 15 -5 0 -10 5 -10 11 0 5 5 7 12 3 7 -4 8 -3 4 4 -4 7 -15 12 -24 12 -14 0 -15 2 -2 10 12 8 12 10 -4 16 -14 5 -15 9 -4 15 10 7 9 9 -5 9 -10 0 -15 5 -12 10 3 6 1 10 -4 10 -6 0 -11 5 -11 11 0 5 6 7 13 4 6 -4 4 0 -7 9 -11 9 -15 20 -10 28 6 10 5 11 -7 1 -11 -9 -14 -7 -16 14 0 14 -7 30 -13 37 -10 8 -11 8 -5 -3 5 -9 4 -12 -3 -7 -6 3 -9 15 -7 26 4 19 -5 24 -30 21 -5 -1 -2 5 8 13 18 14 18 14 -1 20 -11 4 -23 14 -26 22 -3 9 -2 12 5 8 6 -3 5 3 -3 15 -7 12 -18 21 -25 21 -7 0 -10 7 -6 17 5 12 2 15 -8 11 -11 -4 -15 1 -13 23 1 16 -2 26 -7 23 -5 -3 -9 0 -9 6 0 6 -7 18 -15 27 -8 8 -13 19 -10 24 4 5 2 9 -4 9 -5 0 -12 -6 -15 -12 -3 -7 -3 -3 0 10 3 14 1 22 -7 22 -7 0 -10 3 -7 6 3 3 -5 17 -19 32 -14 15 -22 34 -19 45 4 16 2 16 -12 5 -10 -8 -13 -8 -9 -1 4 6 1 18 -7 25 -8 8 -16 23 -18 34 -2 10 -10 18 -16 16 -7 -1 -11 4 -10 10 2 7 -2 12 -9 11 -7 -2 -10 7 -7 23 3 16 1 23 -6 19 -5 -3 -10 -1 -10 5 0 6 -5 8 -12 4 -7 -5 -9 -2 -5 9 3 9 -1 18 -10 21 -8 4 -13 13 -9 21 5 14 -5 20 -27 16 -5 -1 -6 3 -2 9 3 5 1 10 -5 10 -6 0 -8 5 -5 10 3 6 -2 10 -12 11 -10 0 -13 3 -6 5 7 3 0 16 -18 33 -16 16 -29 34 -29 40 0 7 -4 10 -9 6 -6 -3 -8 4 -6 15 2 12 -1 20 -9 20 -7 0 -18 12 -24 26 -7 15 -17 22 -24 18 -8 -5 -9 -2 -5 9 4 11 -3 26 -19 42 -14 14 -22 30 -19 35 3 5 0 7 -7 5 -8 -3 -24 9 -38 27 -18 25 -19 29 -5 18 18 -14 18 -14 0 12 -11 15 -26 28 -33 28 -7 0 -11 3 -9 8 6 9 -19 33 -27 25 -3 -4 -6 4 -6 16 0 16 -4 21 -14 18 -10 -4 -13 -1 -9 9 3 7 0 14 -6 14 -6 0 -8 8 -4 18 6 15 5 15 -10 3 -15 -12 -17 -11 -17 5 0 11 -16 32 -35 49 -22 17 -33 35 -30 43 5 13 3 13 -12 1 -15 -12 -16 -12 -10 4 3 9 3 17 -2 17 -5 0 -11 9 -14 21 -3 12 -10 18 -15 15 -5 -3 -12 4 -15 15 -4 13 -10 18 -18 13 -7 -4 -10 -3 -6 3 4 6 -4 19 -18 29 -13 10 -22 21 -19 26 3 4 -2 8 -10 8 -9 0 -16 7 -16 16 0 10 -6 14 -15 10 -8 -3 -14 -2 -14 2 3 20 -3 32 -16 32 -14 0 -20 13 -16 34 1 5 -5 4 -13 -3 -12 -10 -14 -9 -9 8 4 16 1 21 -13 21 -9 0 -15 3 -11 6 8 9 -16 33 -27 26 -5 -3 -6 0 -3 5 8 12 -17 36 -26 26 -4 -3 -7 3 -7 15 0 12 -6 22 -14 22 -8 0 -17 7 -20 16 -3 8 -11 12 -17 8 -8 -4 -9 -3 -5 4 4 7 2 12 -3 12 -6 0 -11 7 -11 17 0 9 -3 13 -6 10 -4 -3 -20 8 -37 26 -16 18 -35 31 -41 29 -6 -2 -8 -1 -4 3 7 8 -33 51 -44 47 -5 -1 -8 3 -8 9 0 16 -26 39 -35 31 -5 -4 -5 1 -2 11 4 11 3 16 -3 12 -6 -3 -10 -1 -10 5 0 6 -5 8 -10 5 -6 -3 -13 1 -16 9 -3 9 -10 13 -15 10 -5 -3 -9 2 -9 11 0 11 -5 15 -16 11 -12 -5 -14 -1 -9 15 4 13 3 19 -3 15 -5 -3 -20 3 -32 14 -13 11 -19 20 -14 21 5 0 1 4 -9 8 -10 4 -18 11 -18 16 0 16 -31 45 -40 39 -5 -3 -12 2 -15 10 -3 9 -10 13 -15 10 -5 -3 -9 2 -9 11 0 12 -5 15 -16 11 -15 -6 -15 -4 -3 11 7 10 9 15 5 11 -5 -4 -15 -3 -23 4 -11 9 -12 7 -8 -8 3 -10 -1 -5 -9 11 -8 17 -15 26 -16 22 0 -4 -6 -2 -14 5 -8 7 -12 16 -9 21 2 4 1 7 -4 6 -17 -3 -36 1 -30 7 8 8 -16 33 -25 27 -5 -2 -8 2 -8 10 0 8 -7 17 -14 20 -11 4 -13 1 -10 -11 4 -12 2 -11 -7 3 -8 11 -14 22 -14 25 -1 16 -18 28 -32 23 -12 -5 -15 -2 -10 10 3 9 3 16 -1 16 -21 -3 -32 3 -32 18 0 9 -3 13 -6 10 -10 -10 -44 12 -44 28 0 8 -8 15 -18 15 -19 0 -52 33 -52 53 0 8 -4 7 -10 -3 -8 -13 -10 -12 -10 4 0 15 -3 16 -14 7 -11 -9 -16 -9 -22 0 -4 8 -3 9 4 5 7 -4 12 -3 12 3 0 5 -9 13 -20 16 -11 3 -20 14 -21 23 0 11 -2 13 -6 4 -3 -9 -10 -7 -23 9 -11 11 -24 18 -29 14 -7 -4 -8 0 -4 11 4 12 3 15 -5 10 -8 -4 -12 0 -13 11 0 10 -3 13 -5 6 -4 -8 -11 -7 -24 4 -10 9 -17 20 -15 23 3 4 -6 6 -20 5 -18 -2 -22 1 -18 13 5 11 2 14 -10 9 -9 -3 -16 -3 -16 1 1 4 1 14 0 22 -1 13 -2 13 -11 0 -8 -12 -10 -10 -10 9 0 21 -2 22 -17 10 -11 -10 -14 -10 -9 -1 4 7 1 12 -8 12 -9 0 -16 6 -16 13 0 14 -49 39 -61 31 -5 -3 -6 2 -3 11 5 11 2 14 -12 8 -11 -4 -15 -3 -10 5 8 13 -35 44 -55 40 -8 -2 -13 4 -13 14 1 10 -1 17 -5 16 -3 0 -15 0 -26 1 -17 1 -18 3 -5 12 12 8 12 10 -4 7 -12 -2 -35 12 -59 35 -39 37 -60 50 -37 22 7 -9 11 -18 8 -20 -3 -3 -11 6 -18 20 -7 14 -19 25 -27 25 -7 0 -13 5 -13 10 0 6 -10 10 -22 10 -19 0 -20 2 -8 10 12 8 11 10 -7 10 -13 0 -23 5 -23 10 0 6 -9 10 -20 10 -10 0 -24 9 -30 21 -7 12 -18 18 -26 15 -9 -3 -12 -1 -9 4 6 9 -8 14 -27 11 -5 0 -8 6 -8 14 0 14 -12 19 -32 16 -5 0 -8 4 -8 9 0 6 -7 10 -16 10 -8 0 -12 5 -9 10 5 8 -22 15 -47 11 -4 0 -5 9 -3 20 4 17 2 19 -10 9 -12 -10 -15 -9 -15 3 0 11 -7 15 -21 12 -12 -3 -19 -2 -16 2 3 3 0 12 -8 19 -17 17 -29 18 -19 2 4 -7 3 -8 -4 -4 -7 4 -12 14 -12 22 0 8 -5 14 -11 14 -5 0 -7 -6 -3 -12 9 -15 -24 9 -44 32 -12 13 -13 13 -7 0 4 -10 2 -9 -8 3 -8 9 -20 17 -26 17 -7 0 -19 7 -28 16 -9 8 -21 13 -29 10 -8 -3 -11 2 -9 13 2 10 -3 18 -10 18 -8 0 -12 -3 -10 -7 2 -4 -2 -7 -10 -7 -8 0 -12 4 -9 9 3 4 0 8 -6 8 -6 0 -8 4 -5 10 3 5 0 7 -8 4 -8 -3 -17 2 -21 11 -3 10 -12 15 -21 11 -8 -3 -15 -1 -15 4 0 6 -6 10 -13 10 -7 0 -22 7 -33 16 -10 8 -13 12 -5 8 9 -4 12 -3 8 3 -4 6 -18 9 -32 8 -14 -2 -23 1 -19 6 4 8 -17 14 -38 10 -5 0 -7 2 -7 7 1 4 1 14 0 22 -1 13 -2 13 -11 0 -8 -12 -10 -12 -10 -1 0 11 -3 11 -16 1 -8 -8 -14 -9 -13 -4 1 5 1 15 0 23 -1 11 -4 11 -18 0 -11 -10 -14 -10 -9 -1 4 7 1 12 -8 12 -9 0 -16 5 -16 11 0 5 -4 8 -9 5 -5 -3 -11 1 -15 9 -3 8 -10 15 -16 15 -6 0 -8 -5 -4 -12 4 -7 3 -8 -4 -4 -7 4 -12 14 -12 22 0 8 -3 13 -7 13 -22 -4 -43 2 -39 10 4 5 -5 8 -19 6 -14 -1 -28 2 -32 8 -4 6 -1 7 7 2 9 -5 11 -4 6 3 -4 7 -16 12 -27 12 -14 0 -18 4 -13 13 5 7 0 6 -11 -3 -10 -8 -16 -10 -12 -4 4 7 -1 18 -10 25 -12 10 -14 10 -9 2 11 -19 -2 -16 -26 7 -12 11 -32 20 -45 20 -13 0 -23 4 -23 9 0 5 -7 12 -16 15 -8 3 -12 2 -9 -4 3 -6 -1 -7 -9 -4 -9 3 -14 10 -11 14 6 9 -24 24 -42 21 -7 -1 -13 3 -13 8 0 6 -7 8 -15 5 -8 -4 -15 -1 -15 6 0 7 -8 10 -20 7 -11 -3 -18 0 -17 7 1 6 -5 11 -13 11 -8 0 -19 6 -23 13 -5 7 -13 9 -19 6 -6 -4 -17 1 -24 10 -8 11 -14 13 -19 6 -4 -6 -14 -2 -26 12 -12 13 -18 18 -15 12 3 -6 -1 -11 -8 -11 -8 0 -12 6 -9 13 3 8 -4 11 -22 10 -14 -2 -23 -1 -20 2 2 3 -3 11 -13 18 -13 9 -20 10 -31 1 -12 -9 -13 -9 -7 1 5 8 0 12 -14 12 -12 0 -19 4 -16 9 4 5 -6 8 -20 6 -15 -1 -28 3 -31 11 -3 8 -14 14 -24 14 -10 0 -29 10 -41 22 -15 15 -20 16 -15 5 4 -11 2 -14 -8 -11 -7 3 -16 12 -19 20 -3 7 -12 11 -21 8 -8 -4 -22 -1 -30 6 -8 6 -19 9 -24 6 -5 -4 -14 1 -19 10 -5 9 -15 15 -23 12 -7 -2 -20 3 -29 12 -8 9 -11 10 -7 4 7 -10 2 -10 -22 -1 -16 6 -28 14 -25 19 3 4 -3 5 -12 1 -12 -4 -15 -3 -10 5 5 8 2 10 -8 6 -9 -4 -16 -1 -16 6 0 10 -3 10 -15 0 -12 -10 -15 -10 -15 0 0 7 -7 10 -14 7 -11 -4 -13 -1 -9 11 6 15 5 15 -10 3 -14 -11 -18 -11 -23 2 -3 9 -12 13 -20 10 -8 -3 -14 -1 -14 5 0 5 -12 8 -26 6 -19 -2 -24 1 -20 12 5 12 2 12 -15 3 -13 -7 -19 -7 -15 -1 3 6 2 13 -4 17 -5 3 -10 1 -10 -5 0 -7 -7 -5 -16 4 -18 18 -28 21 -19 5 4 -6 -12 -1 -35 11 -23 12 -39 16 -35 10 4 -7 -4 -5 -17 4 -14 9 -28 13 -31 9 -4 -3 -7 -1 -7 5 0 7 -3 11 -7 11 -26 -4 -43 2 -37 14 5 9 4 9 -6 0 -14 -13 -43 -6 -34 8 3 5 -9 7 -25 5 -17 -2 -31 1 -31 6 0 6 -7 8 -15 5 -8 -4 -17 -1 -21 5 -5 7 -2 8 6 3 9 -5 11 -4 6 4 -6 9 -11 9 -21 1 -9 -7 -14 -7 -17 -1 -1 6 -15 12 -30 13 -16 1 -28 6 -28 10 0 4 -6 5 -14 2 -8 -3 -17 -1 -20 5 -4 6 -14 7 -23 4 -12 -5 -14 -3 -8 8 8 12 6 12 -8 0 -14 -11 -18 -11 -23 4 -5 11 -9 13 -14 5 -5 -8 -11 -7 -22 4 -8 8 -27 13 -42 12 -18 -2 -26 1 -26 13 0 14 -2 14 -10 1 -7 -12 -10 -12 -10 -1 0 7 -6 11 -15 8 -8 -4 -17 -2 -20 3 -3 5 -19 8 -36 6 -22 -3 -27 0 -19 9 8 9 4 11 -15 7 -14 -2 -33 2 -42 9 -15 12 -16 12 -8 -1 8 -13 7 -13 -9 -1 -15 13 -19 13 -27 0 -7 -11 -9 -11 -9 3 0 11 -5 15 -15 12 -8 -4 -15 -1 -15 5 0 9 -5 9 -20 1 -19 -10 -25 -6 -21 14 1 5 -5 4 -13 -4 -9 -7 -16 -8 -16 -2 0 5 -7 13 -16 16 -10 4 -13 2 -8 -7 6 -9 4 -9 -7 -1 -8 6 -22 10 -31 9 -11 -2 -18 3 -18 13 0 14 -2 14 -9 3 -6 -9 -10 -10 -16 -2 -5 9 -10 9 -21 0 -10 -8 -14 -8 -14 0 0 6 -11 11 -25 11 -14 0 -25 6 -25 13 0 9 -3 8 -9 -2 -6 -9 -11 -10 -15 -2 -4 6 -12 11 -17 11 -6 0 -7 -6 -3 -12 6 -9 3 -9 -9 0 -9 8 -21 11 -27 7 -5 -3 -10 2 -11 12 0 10 -3 13 -6 6 -2 -7 -9 -13 -14 -13 -6 0 -7 6 -3 13 6 9 4 9 -8 -1 -12 -9 -18 -10 -23 -2 -4 7 -16 10 -26 7 -11 -3 -26 1 -34 10 -8 8 -15 10 -15 5 0 -5 -7 -9 -15 -9 -8 0 -15 3 -15 7 0 3 -14 7 -32 8 -17 2 -37 7 -44 13 -8 7 -15 6 -20 -2 -5 -8 -3 -9 6 -4 9 6 11 4 6 -4 -6 -9 -13 -8 -29 6 -11 10 -17 13 -14 6 5 -7 0 -9 -13 -6 -11 3 -20 8 -20 12 0 4 -18 6 -40 5 -23 0 -40 4 -40 10 0 6 -5 4 -10 -4 -7 -11 -10 -11 -10 -2 0 7 -4 10 -10 7 -5 -3 -10 0 -10 7 0 9 -3 9 -10 -2 -5 -8 -10 -10 -10 -4 0 6 -15 10 -35 9 -19 -1 -35 2 -35 7 0 4 -12 3 -26 -2 -14 -6 -23 -6 -20 -1 3 5 -3 11 -14 14 -11 3 -18 1 -14 -4 9 -15 -8 -10 -29 9 -11 9 -17 11 -13 4 5 -8 1 -11 -13 -9 -11 2 -23 6 -27 9 -3 4 -16 3 -29 -2 -17 -6 -27 -5 -35 5 -8 10 -18 12 -28 6 -8 -5 -24 -6 -34 -3 -11 3 -25 -1 -30 -9 -8 -11 -9 -11 -5 3 3 9 -1 19 -9 22 -8 3 -12 2 -9 -3 3 -5 1 -12 -4 -15 -5 -3 -12 1 -15 10 -5 12 -10 14 -20 5 -7 -6 -15 -9 -17 -6 -11 10 -79 13 -79 3 0 -6 -8 -4 -18 5 -10 10 -22 14 -26 10 -12 -12 -36 -12 -36 0 0 7 -5 5 -10 -3 -9 -13 -10 -13 -10 0 0 13 -1 13 -10 0 -8 -12 -10 -12 -11 5 0 11 -3 14 -6 8 -5 -14 -45 -18 -57 -6 -10 10 -37 13 -31 3 6 -10 -15 -8 -32 3 -6 4 -14 3 -18 -3 -4 -6 -12 -7 -18 -3 -19 13 -217 11 -210 -1 5 -7 2 -7 -8 0 -17 13 -377 13 -398 0 -10 -6 -12 -6 -7 2 9 14 -3 15 -24 2 -9 -5 -19 -5 -27 2 -9 7 -13 7 -13 -1 0 -7 -5 -9 -12 -5 -19 12 -48 12 -41 1z m6678 -2467 c3 -5 1 -10 -4 -10 -6 0 -11 5 -11 10 0 6 2 10 4 10 3 0 8 -4 11 -10z" transform="translate(0.000000,2000.000000) scale(0.100000,-0.100000)"/><path d="M19235 10401 c-3 -5 -2 -12 3 -15 5 -3 9 1 9 9 0 17 -3 19 -12 6z" transform="translate(0.000000,2000.000000) scale(0.100000,-0.100000)"/></g></svg>